<?xml version="1.0" standalone="no"?>
<!DOCTYPE svg PUBLIC "-//W3C//DTD SVG 20010904//EN"
 "http://www.w3.org/TR/2001/REC-SVG-20010904/DTD/svg10.dtd">
<svg version="1.0" xmlns="http://www.w3.org/2000/svg"
 width="1024.000000pt" height="1024.000000pt" viewBox="0 0 1024.000000 1024.000000"
 preserveAspectRatio="xMidYMid meet">
<metadata>
Created by potrace 1.16, written by Peter Selinger 2001-2019
</metadata>
<g transform="translate(0.000000,1024.000000) scale(0.100000,-0.100000)"
fill="#000000" stroke="none">
<path d="M3495 8347 c-166 -47 -291 -123 -410 -248 -121 -127 -187 -247 -238
-427 -20 -73 -21 -102 -24 -557 -2 -264 -6 -490 -8 -503 -11 -45 -49 -51 -353
-53 -155 -1 -280 -4 -277 -8 2 -4 -9 -15 -25 -25 -17 -9 -41 -37 -55 -61 l-26
-43 3 -309 3 -310 28 -41 c51 -77 71 -82 349 -82 253 0 302 -6 334 -41 18 -20
19 -58 25 -1048 4 -726 9 -1046 17 -1096 42 -243 155 -505 293 -678 21 -27 36
-54 32 -61 -3 -6 -3 -8 2 -4 4 4 47 -29 94 -75 85 -81 185 -158 249 -191 19
-10 30 -21 26 -28 -4 -7 -3 -8 4 -4 6 4 37 -6 69 -22 115 -57 292 -107 467
-131 108 -15 3959 -16 3964 -1 2 5 8 8 12 5 5 -3 12 0 16 7 4 7 4 10 0 6 -11
-9 -78 121 -70 134 4 7 2 8 -4 4 -7 -4 -20 10 -33 35 -11 23 -94 171 -184 328
-319 561 -505 902 -499 913 4 6 3 8 -2 5 -6 -3 -63 89 -128 204 -65 115 -122
211 -126 214 -12 7 -864 7 -883 -1 -19 -7 -28 -29 -21 -49 5 -12 31 -15 143
-15 l136 0 48 -96 c26 -52 44 -100 41 -106 -4 -6 -3 -8 3 -5 10 6 23 -13 23
-31 0 -4 -48 -6 -107 -4 -141 4 -155 0 -151 -41 l3 -32 148 -3 148 -3 64 -129
64 -130 -80 0 c-44 0 -89 -5 -100 -10 -19 -11 -26 -44 -10 -54 4 -3 56 -6 115
-7 l107 -2 20 -39 c11 -21 17 -44 13 -50 -4 -6 -3 -8 3 -5 6 4 24 -22 41 -61
17 -37 40 -86 51 -109 20 -44 14 -62 -8 -20 l-11 22 6 -23 6 -23 -1144 3
-1143 3 -79 28 c-43 15 -103 44 -132 63 -66 44 -197 182 -190 200 3 8 0 13 -6
11 -20 -4 -86 142 -114 249 -37 147 -42 276 -40 1120 2 731 3 762 22 794 10
18 32 42 47 54 28 21 37 21 680 26 709 5 680 3 733 62 53 57 54 66 54 386 l0
298 -26 40 c-14 22 -42 51 -62 64 l-36 25 -705 5 -706 5 2 40 c1 22 2 47 2 56
1 10 17 21 44 29 155 46 357 214 454 378 84 141 132 332 120 477 -31 366 -275
669 -634 791 -69 24 -97 27 -238 30 -142 3 -169 1 -240 -19z m305 -378 c127
-20 255 -105 330 -216 96 -146 96 -370 -1 -516 -166 -251 -538 -289 -750 -78
-99 100 -146 228 -136 376 14 225 171 397 395 435 68 11 89 11 162 -1z m3184
-3896 c3 -8 3 -20 -1 -25 -3 -7 -1 -8 5 -4 7 4 12 5 12 2 0 -2 3 -12 7 -22 5
-13 3 -15 -7 -9 -9 5 -11 4 -6 -4 4 -6 11 -9 16 -6 13 8 61 -90 54 -108 -3 -8
-1 -18 5 -22 7 -4 9 1 5 12 -5 16 -4 16 10 -1 9 -11 16 -23 16 -28 0 -9 -1 -9
-282 -11 l-217 -2 -58 123 -59 123 247 -1 c212 -1 248 -3 253 -17z m236 -421
c36 -64 66 -123 68 -130 3 -9 -51 -12 -247 -11 -160 1 -251 5 -251 11 0 6 -6
6 -14 -1 -10 -9 -15 -8 -19 1 -3 7 -30 66 -61 131 l-55 117 257 0 257 -1 65
-117z m144 -261 c15 -29 24 -57 20 -67 -4 -13 -3 -15 3 -6 7 8 20 -7 45 -52
23 -42 32 -67 24 -70 -6 -2 -4 -5 5 -5 22 -1 33 -32 17 -44 -9 -6 -8 -7 4 -3
10 3 20 1 23 -4 7 -12 -534 -14 -551 -2 -12 7 -65 108 -120 229 l-32 72 267 0
268 1 27 -49z m-2324 -341 c0 -5 5 -10 11 -10 5 0 7 5 4 10 -4 7 73 9 235 8
l242 -3 59 -133 c32 -74 59 -136 59 -138 0 -2 -147 -4 -328 -4 l-327 0 -27 73
c-15 39 -39 102 -52 140 l-25 67 74 0 c43 0 75 -4 75 -10z m1121 -2 c0 -10 2
-10 6 0 8 20 61 15 73 -8 6 -11 8 -26 4 -32 -4 -6 -3 -8 3 -5 5 3 32 -44 60
-106 l50 -112 -146 -5 c-212 -7 -481 -1 -481 11 0 5 -24 64 -54 130 l-54 119
46 0 c34 0 43 3 32 10 -10 6 65 10 223 10 182 0 237 -3 238 -12z m804 -120
c36 -73 65 -136 65 -140 0 -4 -124 -7 -276 -8 -151 0 -280 -1 -287 -3 -14 -2
-137 242 -132 260 2 6 -1 14 -8 17 -7 2 120 5 281 5 l292 1 65 -132z m654 6
c39 -69 69 -130 66 -135 -4 -5 0 -9 7 -10 7 -1 -7 -5 -31 -10 -24 -5 -49 -5
-55 -2 -6 4 -26 6 -46 5 -92 -4 -423 -1 -431 4 -5 3 -37 60 -70 126 -43 86
-57 123 -48 129 8 5 6 8 -7 12 -10 2 108 5 262 6 l281 1 72 -126z m-1943 -232
c11 -2 34 -45 34 -63 0 -6 -5 -7 -12 -3 -7 4 -8 3 -4 -5 4 -6 11 -9 15 -6 8 4
121 -236 121 -256 0 -4 -153 -7 -342 -6 l-342 2 -63 170 c-35 94 -63 170 -63
170 0 0 145 0 323 -1 177 0 327 -1 333 -2z m718 -3 c6 -6 156 -329 156 -336 0
-1 -141 -3 -313 -3 l-313 0 -19 43 c-10 23 -44 99 -76 169 l-57 127 51 3 c89
5 566 3 571 -3z m667 -10 c7 -12 9 -11 9 1 1 14 168 -305 169 -323 1 -4 -134
-6 -300 -5 l-301 3 -47 105 c-27 58 -61 134 -78 170 l-30 65 285 -1 c228 -1
286 -4 293 -15z m686 8 c6 -4 39 -57 73 -119 35 -62 76 -136 92 -165 l29 -52
-305 -1 -306 -1 -67 138 c-36 76 -74 154 -83 174 l-18 36 288 -2 c158 -1 291
-5 297 -8z"/>
<path d="M3625 7691 c-79 -37 -125 -111 -126 -205 -2 -116 95 -216 209 -216
98 0 170 43 208 124 71 153 -30 316 -196 316 -32 0 -71 -8 -95 -19z"/>
<path d="M6973 6951 c-72 -44 -58 -154 22 -181 68 -22 125 21 125 93 0 49 -13
73 -50 92 -38 20 -58 19 -97 -4z"/>
<path d="M6375 6356 c-51 -22 -69 -89 -40 -145 16 -33 33 -41 82 -41 80 0 124
104 68 164 -13 14 -31 26 -39 26 -8 0 -20 2 -28 5 -7 2 -27 -2 -43 -9z"/>
<path d="M7371 6137 c-39 -20 -63 -61 -65 -110 -1 -25 0 -44 2 -42 2 2 14 -7
26 -21 15 -17 37 -27 74 -33 29 -4 50 -6 48 -3 -3 2 5 13 19 23 57 46 53 142
-9 180 -36 22 -61 24 -95 6z"/>
<path d="M6693 5706 c-118 -53 -76 -226 55 -226 41 0 89 42 103 89 27 91 -70
176 -158 137z"/>
<path d="M6050 5343 c-50 -19 -67 -84 -34 -131 20 -29 85 -31 114 -2 25 25 26
80 3 108 -19 23 -59 34 -83 25z"/>
<path d="M7296 5198 c-24 -22 -65 -105 -46 -93 6 3 10 -3 10 -14 0 -30 56 -71
96 -71 46 0 70 14 89 50 19 38 19 65 -2 100 -31 53 -104 66 -147 28z"/>
<path d="M5315 5046 c-44 -13 -84 -22 -90 -19 -5 4 -7 2 -2 -2 4 -5 -15 -23
-42 -40 -123 -75 -224 -203 -265 -334 -46 -148 -42 -252 15 -364 l29 -57 -48
-22 c-54 -26 -134 -103 -161 -156 -31 -60 -51 -142 -51 -204 0 -32 3 -58 8
-59 4 0 100 -2 214 -4 228 -4 252 -7 318 -41 80 -42 129 -99 158 -183 10 -29
21 -52 25 -52 4 1 169 1 367 1 l359 0 18 58 c28 91 24 248 -10 335 -42 107
-117 201 -204 252 l-32 19 58 55 c79 77 105 142 105 271 0 112 -17 177 -71
269 -53 88 -101 141 -181 195 -102 70 -193 98 -327 103 -94 3 -122 0 -190 -21z
m462 -273 c3 -7 10 -10 18 -7 20 8 68 -20 109 -66 46 -51 58 -81 58 -150 1
-89 -52 -170 -134 -204 -50 -21 -483 -22 -540 -2 -76 27 -130 95 -143 182 -8
44 11 128 25 119 6 -3 7 1 4 10 -8 19 45 78 91 103 49 26 99 31 309 29 144 -2
200 -5 203 -14z"/>
<path d="M5339 4647 c-46 -31 -58 -75 -34 -126 15 -34 23 -41 56 -46 73 -12
128 40 115 109 -13 68 -82 100 -137 63z"/>
<path d="M5691 4654 c-57 -24 -73 -106 -30 -153 30 -32 67 -37 108 -15 104 56
31 214 -78 168z"/>
<path d="M6724 4842 c3 -3 -8 -13 -24 -24 -99 -60 -61 -211 53 -211 59 0 103
31 117 83 13 47 -5 100 -42 124 -22 14 -115 40 -104 28z"/>
<path d="M4070 4145 c-6 -8 -10 -22 -8 -32 3 -17 24 -18 305 -21 297 -2 302
-2 313 18 9 16 8 25 -1 36 -17 21 -591 21 -609 -1z"/>
<path d="M4077 3835 c-20 -19 -21 -37 -5 -53 17 -17 499 -17 516 0 14 14 16
45 2 53 -5 3 -119 8 -253 11 -218 5 -246 4 -260 -11z"/>
<path d="M4665 3713 c-103 -18 -166 -66 -204 -156 -55 -129 2 -296 119 -346
48 -21 61 -21 318 -17 266 4 311 7 309 16 0 3 20 26 45 51 128 131 93 348 -69
425 -57 27 -60 27 -278 29 -121 0 -229 0 -240 -2z m48 -184 c58 -45 52 -156
-8 -179 -35 -13 -48 -13 -39 2 5 7 2 9 -7 6 -34 -13 -74 51 -63 100 13 57 17
64 47 77 41 18 40 18 70 -6z m379 1 c33 -16 53 -68 44 -114 -7 -39 -30 -62
-69 -71 -91 -23 -132 146 -45 188 18 9 35 15 38 13 3 -1 17 -8 32 -16z"/>
<path d="M6250 3668 c0 -44 -22 -124 -48 -174 -31 -61 -84 -120 -167 -186 -41
-32 -75 -65 -75 -73 0 -8 3 -14 8 -13 4 0 24 -7 45 -16 90 -40 213 -22 304 44
26 19 52 33 56 32 5 -1 6 2 3 6 -3 5 4 28 15 52 48 100 15 249 -73 325 -52 44
-68 45 -68 3z"/>
</g>
</svg>
